<svg width="32" height="32" viewBox="0 0 32 32" fill="none" xmlns="http://www.w3.org/2000/svg">
<g clip-path="url(#clip0_21_402)">
<path d="M19.5151 11.9518C18.8371 11.9518 18.3351 12.1228 17.9421 12.3388C17.8791 12.1148 17.6721 11.9508 17.4281 11.9998H14.4441C14.1491 11.9508 13.9101 12.1898 14.0011 12.4998V23.4998C13.9101 23.7798 14.1491 24.0198 14.4441 23.9998H17.4281C17.7231 24.0198 17.9621 23.7798 17.9621 23.4848L17.9611 16.8368C17.9601 16.8338 17.9491 16.5158 18.1501 16.2968C18.3111 16.1228 18.5881 16.0338 18.9711 16.0338C19.6091 16.0338 19.8931 16.2948 19.9991 16.8788V23.4848C19.8941 23.7798 20.1331 24.0198 20.4281 23.9998H23.5731C23.8681 24.0198 24.1071 23.7798 24.0011 23.4848V16.6568C24.1061 13.1848 21.6331 11.9518 19.5151 11.9518ZM23.0381 22.9998H20.9621V16.8788C20.9621 15.6978 20.1991 14.9658 18.9721 14.9658C18.2781 14.9658 17.7381 15.1698 17.3661 15.5718C16.8491 16.1318 16.8891 16.8418 17.0001 16.9998V22.9998H14.9781V13.0198H16.8941V13.3558C16.8933 13.4559 16.9208 13.5542 16.9733 13.6394C17.0259 13.7246 17.1014 13.7932 17.1912 13.8374C17.2811 13.8815 17.3815 13.8995 17.4811 13.8891C17.5806 13.8788 17.6753 13.8405 17.7541 13.7788L17.8941 13.6708C18.2991 13.3518 18.7181 13.0208 19.5161 13.0208C20.3421 13.0208 23.0391 13.2838 23.0391 16.6578L23.0381 22.9998ZM11.0001 6.96582C9.87806 6.96582 8.96606 7.87782 8.96606 8.99982C8.96606 10.1218 9.87806 11.0338 11.0001 11.0338C12.1221 11.0338 13.0341 10.1218 13.0341 8.99982C13.0341 7.87782 12.1221 6.96582 11.0001 6.96582ZM11.0001 9.96582C10.4681 9.96582 10.0341 9.53182 10.0341 8.99982C10.0341 8.46782 10.4681 8.03382 11.0001 8.03382C11.5321 8.03382 11.9661 8.46782 11.9661 8.99982C11.9661 9.53182 11.5321 9.96582 11.0001 9.96582ZM12.4281 11.9508H9.46006C9.16506 11.9508 8.92606 12.1898 9.00006 12.4998V23.4998C8.92606 23.7798 9.16506 24.0198 9.46006 23.9998H12.4281C12.7231 24.0198 12.9621 23.7798 12.9621 23.4848V12.4848C12.9621 12.3432 12.9058 12.2074 12.8057 12.1072C12.7055 12.0071 12.5697 11.9508 12.4281 11.9508ZM12.0001 22.9998H9.99407V13.0198H12.0001V22.9998Z" fill="white"/>
<path d="M16.0001 -0.0341797C7.15806 -0.0341797 -0.0339355 7.15782 -0.0339355 15.9998C-0.0339355 24.8418 7.15806 32.0338 16.0001 32.0338C24.8421 32.0338 32.0341 24.8418 32.0341 15.9998C32.0341 7.15782 24.8421 -0.0341797 16.0001 -0.0341797ZM16.0001 30.9658C7.74806 30.9658 1.03406 24.2518 1.03406 15.9998C1.03406 7.74782 7.74806 1.03382 16.0001 1.03382C24.2521 1.03382 30.9661 7.74782 30.9661 15.9998C30.9661 24.2518 24.2521 30.9658 16.0001 30.9658Z" fill="white"/>
</g>
<defs>
<clipPath id="clip0_21_402">
<rect width="32" height="32" fill="white"/>
</clipPath>
</defs>
</svg>
