<svg width="33" height="33" viewBox="0 0 33 33" fill="none" xmlns="http://www.w3.org/2000/svg">
<path d="M16.034 0C7.192 0 0 7.192 0 16.034C0 24.876 7.192 32.068 16.034 32.068C24.876 32.068 32.068 24.876 32.068 16.034C32.068 7.192 24.876 0 16.034 0ZM16.034 31C7.782 31 1.068 24.286 1.068 16.034C1.068 7.782 7.782 1.068 16.034 1.068C24.286 1.068 31 7.782 31 16.034C31 24.286 24.286 31 16.034 31Z" fill="white"/>
<path d="M22.7348 8.49896L21.4548 9.49896L16.0048 13.549L10.5548 9.45896L9.27483 8.45896C8.97329 8.20951 8.60518 8.054 8.21612 8.01171C7.82706 7.96942 7.43414 8.04221 7.08604 8.22105C6.73794 8.39989 6.44996 8.67692 6.25777 9.01784C6.06559 9.35875 5.97764 9.74856 6.00483 10.139V21.729C6.00483 22.0897 6.14812 22.4356 6.40317 22.6906C6.65822 22.9457 7.00414 23.089 7.36483 23.089H10.5548V15.369L16.0048 19.459L21.4548 15.369V23.089H24.6448C25.0055 23.089 25.3515 22.9457 25.6065 22.6906C25.8616 22.4356 26.0048 22.0897 26.0048 21.729V10.139C26.0236 9.75192 25.9295 9.36777 25.7341 9.03319C25.5386 8.6986 25.2502 8.42801 24.9038 8.25429C24.5574 8.08058 24.168 8.01122 23.783 8.05466C23.3979 8.09809 23.0338 8.25245 22.7348 8.49896Z" fill="white"/>
</svg>
